<svg xmlns="http://www.w3.org/2000/svg" version="1.1" xmlns:xlink="http://www.w3.org/1999/xlink" xmlns:svgjs="http://svgjs.com/svgjs" width="121.2142" height="124.6644"><svg viewBox="-0.1972 -0.3064 121.2142 124.6644" width="121.2142" height="124.6644" xmlns="http://www.w3.org/2000/svg">
  <path fill="#FE6C6F" opacity="1.000000" stroke="none" d="M -0.056 124.358 C -0.056 83.173 -0.433 41.612 0.045 -0.058 C 40.554 -0.544 80.96 -0.167 121.017 -0.167 C 121.017 41.731 121.017 82.783 121.017 124.358 C 80.428 124.358 40.186 124.358 -0.056 124.358 M 25.963 5.02 C 19.083 5.02 12.203 5.02 5.407 5.02 C 5.407 43.519 5.407 81.097 5.407 118.711 C 42.499 118.711 79.229 118.711 115.902 118.711 C 115.902 80.671 115.902 43.094 115.902 5.02 C 86.023 5.02 56.503 5.02 25.963 5.02 Z" style=""></path>
  <path fill="#FE7275" opacity="1.000000" stroke="none" d=" M69.925087,70.139328 C69.916626,72.540894 69.916626,74.489006 69.916626,76.709854 C67.724686,76.709854 66.163368,76.709854 64.294022,76.709854 C64.294022,67.540794 64.294022,58.647057 64.294022,49.265713 C70.044708,49.265713 75.698235,48.723957 81.158394,49.515732 C83.551315,49.862724 86.900978,52.636688 87.382652,54.840504 C87.976402,57.557049 86.141785,60.865826 85.112206,63.833885 C84.844002,64.607094 83.667252,65.065147 82.613602,65.901451 C84.707695,69.405518 86.718475,72.770180 88.833969,76.310051 C84.497986,78.118019 82.244270,76.387886 80.274635,72.913719 C78.673981,70.090408 77.704147,65.845909 72.977638,66.889587 C71.813866,67.146561 70.940445,68.718468 69.925087,70.139328 M73.571602,61.978706 C76.959236,61.640499 82.002632,63.285912 81.866180,57.656151 C81.726601,51.897198 76.540359,54.112614 73.294403,53.911140 C72.234581,53.845360 70.177269,55.448029 70.132370,56.363930 C70.031952,58.412323 68.343536,61.752930 73.571602,61.978706 z"></path>
  <path fill="#FE7375" opacity="1.000000" stroke="none" d=" M56.080536,52.915836 C63.091141,63.317638 58.897598,75.382996 48.095497,76.906586 C41.486572,77.838730 35.771923,75.237770 33.237518,70.144119 C30.554974,64.752747 31.510044,56.674446 35.290726,52.777386 C39.034744,48.918118 46.583050,47.698959 52.096462,50.190720 C53.434597,50.795486 54.583942,51.817974 56.080536,52.915836 M40.861786,55.144077 C36.943981,58.476852 36.929291,62.978283 38.507931,67.030304 C39.345333,69.179726 42.354160,71.600586 44.568962,71.796776 C47.018391,72.013748 50.596722,70.504898 52.049126,68.539787 C54.637184,65.038132 54.455166,60.523560 51.862076,56.803314 C49.251942,53.058605 45.441559,53.224155 40.861786,55.144077 z"></path>
</svg><style>@media (prefers-color-scheme: light) { :root { filter: none; } }
</style></svg>